<svg width="89" height="89" viewBox="0 0 89 89" fill="none" xmlns="http://www.w3.org/2000/svg">
<g clip-path="url(#clip0_144_2186)">
<path d="M56.3667 86.0333H53.4C53.4 86.5843 53.5534 87.1244 53.8431 87.593C54.1327 88.0617 54.5471 88.4404 55.0399 88.6868C55.5327 88.9332 56.0844 89.0375 56.6331 88.988C57.1818 88.9385 57.7059 88.7372 58.1467 88.4067L56.3667 86.0333ZM68.2333 77.1333L70.0133 74.76C69.4998 74.3749 68.8752 74.1667 68.2333 74.1667C67.5914 74.1667 66.9669 74.3749 66.4533 74.76L68.2333 77.1333ZM80.1 86.0333L78.32 88.4067C78.7608 88.7372 79.2849 88.9385 79.8336 88.988C80.3823 89.0375 80.934 88.9332 81.4267 88.6868C81.9195 88.4404 82.3339 88.0617 82.6236 87.593C82.9132 87.1244 83.0667 86.5843 83.0667 86.0333H80.1ZM68.2333 65.2667C64.2993 65.2667 60.5264 63.7039 57.7446 60.9221C54.9628 58.1403 53.4 54.3674 53.4 50.4333H47.4667C47.4667 55.941 49.6546 61.2231 53.5491 65.1176C57.4436 69.0121 62.7257 71.2 68.2333 71.2V65.2667ZM83.0667 50.4333C83.0667 54.3674 81.5039 58.1403 78.7221 60.9221C75.9403 63.7039 72.1674 65.2667 68.2333 65.2667V71.2C73.741 71.2 79.0231 69.0121 82.9176 65.1176C86.8121 61.2231 89 55.941 89 50.4333H83.0667ZM68.2333 35.6C72.1674 35.6 75.9403 37.1628 78.7221 39.9446C81.5039 42.7264 83.0667 46.4993 83.0667 50.4333H89C89 44.9257 86.8121 39.6436 82.9176 35.7491C79.0231 31.8546 73.741 29.6667 68.2333 29.6667V35.6ZM68.2333 29.6667C62.7257 29.6667 57.4436 31.8546 53.5491 35.7491C49.6546 39.6436 47.4667 44.9257 47.4667 50.4333H53.4C53.4 46.4993 54.9628 42.7264 57.7446 39.9446C60.5264 37.1628 64.2993 35.6 68.2333 35.6V29.6667ZM53.4 62.3V86.0333H59.3333V62.3H53.4ZM58.1467 88.4067L70.0133 79.5067L66.4533 74.76L54.5867 83.66L58.1467 88.4067ZM66.4533 79.5067L78.32 88.4067L81.88 83.66L70.0133 74.76L66.4533 79.5067ZM83.0667 86.0333V62.3H77.1333V86.0333H83.0667ZM89 29.6667V8.9H83.0667V29.6667H89ZM80.1 0H8.9V5.93333H80.1V0ZM0 8.9V80.1H5.93333V8.9H0ZM8.9 89H47.4667V83.0667H8.9V89ZM0 80.1C0 82.4604 0.937676 84.7242 2.60675 86.3933C4.27582 88.0623 6.53957 89 8.9 89V83.0667C8.11319 83.0667 7.35861 82.7541 6.80225 82.1978C6.24589 81.6414 5.93333 80.8868 5.93333 80.1H0ZM8.9 0C6.53957 0 4.27582 0.937676 2.60675 2.60675C0.937676 4.27582 0 6.53957 0 8.9H5.93333C5.93333 8.11319 6.24589 7.35861 6.80225 6.80225C7.35861 6.24589 8.11319 5.93333 8.9 5.93333V0ZM89 8.9C89 6.53957 88.0623 4.27582 86.3932 2.60675C84.7242 0.937676 82.4604 0 80.1 0V5.93333C80.8868 5.93333 81.6414 6.24589 82.1978 6.80225C82.7541 7.35861 83.0667 8.11319 83.0667 8.9H89ZM17.8 29.6667H47.4667V23.7333H17.8V29.6667ZM17.8 47.4667H35.6V41.5333H17.8V47.4667Z" fill="#A5A582"/>
</g>
<defs>
<clipPath id="clip0_144_2186">
<rect width="89" height="89" fill="white"/>
</clipPath>
</defs>
</svg>
