<svg width="102" height="111" viewBox="0 0 102 111" fill="none" xmlns="http://www.w3.org/2000/svg">
<path d="M42.7509 49.6981C48.7184 49.6981 54.4415 47.2556 58.6612 42.9081C62.8808 38.5606 65.2514 32.6641 65.2514 26.5158C65.2514 20.3675 62.8808 14.4709 58.6612 10.1234C54.4415 5.77591 48.7184 3.3335 42.7509 3.3335C36.7834 3.3335 31.0604 5.77591 26.8407 10.1234C22.6211 14.4709 20.2505 20.3675 20.2505 26.5158C20.2505 32.6641 22.6211 38.5606 26.8407 42.9081C31.0604 47.2556 36.7834 49.6981 42.7509 49.6981Z" stroke="#A5A582" stroke-width="6" stroke-linecap="round" stroke-linejoin="round"/>
<path d="M3.375 96.0624V90.2668C3.37363 83.4221 5.05316 76.6883 8.25724 70.6923C11.4613 64.6962 16.0858 59.6329 21.7001 55.9736C27.3145 52.3144 33.7361 50.1782 40.3674 49.7639C46.9986 49.3495 53.6238 50.6706 59.6261 53.604M68.8232 75.2853L74.6677 62.5176C74.8258 62.1527 75.0831 61.8427 75.4085 61.6252C75.734 61.4077 76.1136 61.2919 76.5015 61.2919C76.8894 61.2919 77.269 61.4077 77.5944 61.6252C77.9198 61.8427 78.1771 62.1527 78.3353 62.5176L84.1854 75.2853L97.2525 77.3485C98.9288 77.6093 99.5925 79.8348 98.3775 81.1098L88.9273 91.0376L91.1549 105.069C91.4418 106.871 89.6923 108.245 88.1904 107.393L76.5015 100.768L64.8125 107.393C63.3106 108.245 61.5612 106.871 61.848 105.075L64.0756 91.0376L54.6254 81.1098C53.4104 79.8348 54.0741 77.6093 55.7504 77.3427L68.8232 75.2853Z" stroke="#A5A582" stroke-width="6" stroke-linecap="round" stroke-linejoin="round"/>
</svg>
