<svg width="168" height="27" viewBox="0 0 168 27" fill="none" xmlns="http://www.w3.org/2000/svg">
<path d="M12.1262 21.5449L6.24819 25.0859C5.98852 25.2511 5.71704 25.322 5.43376 25.2983C5.15049 25.2747 4.90262 25.1803 4.69016 25.0151C4.4777 24.8498 4.31246 24.6435 4.19442 24.3961C4.07639 24.1478 4.05278 23.8702 4.1236 23.5633L5.68163 16.8708L0.476402 12.3738C0.240337 12.1613 0.0930327 11.9191 0.0344887 11.6472C-0.0249997 11.3762 -0.00753096 11.1109 0.086895 10.8512C0.181321 10.5915 0.32296 10.3791 0.511812 10.2138C0.700664 10.0486 0.960335 9.94233 1.29083 9.89512L8.16031 9.29315L10.816 2.99022C10.9341 2.70694 11.1173 2.49449 11.3656 2.35285C11.613 2.21121 11.8665 2.14039 12.1262 2.14039C12.3859 2.14039 12.6399 2.21121 12.8882 2.35285C13.1356 2.49449 13.3183 2.70694 13.4364 2.99022L16.0921 9.29315L22.9616 9.89512C23.2921 9.94233 23.5517 10.0486 23.7406 10.2138C23.9294 10.3791 24.0711 10.5915 24.1655 10.8512C24.2599 11.1109 24.2779 11.3762 24.2193 11.6472C24.1598 11.9191 24.0121 12.1613 23.776 12.3738L18.5708 16.8708L20.1288 23.5633C20.1996 23.8702 20.176 24.1478 20.058 24.3961C19.9399 24.6435 19.7747 24.8498 19.5622 25.0151C19.3498 25.1803 19.1019 25.2747 18.8186 25.2983C18.5354 25.322 18.2639 25.2511 18.0042 25.0859L12.1262 21.5449Z" fill="#DA6D18"/>
<path d="M50.0975 21.8131L43.787 25.7936C43.5082 25.9794 43.2168 26.059 42.9127 26.0325C42.6086 26.0059 42.3425 25.8998 42.1144 25.714C41.8863 25.5283 41.7089 25.2964 41.5821 25.0182C41.4554 24.7391 41.4301 24.427 41.5061 24.082L43.1788 16.5589L37.5906 11.5036C37.3371 11.2648 37.179 10.9926 37.1161 10.6868C37.0523 10.3822 37.071 10.0839 37.1724 9.79203C37.2738 9.50013 37.4258 9.2613 37.6286 9.07554C37.8313 8.88978 38.1101 8.77037 38.4649 8.7173L45.8398 8.04061L48.691 0.955321C48.8177 0.636881 49.0144 0.39805 49.281 0.23883C49.5466 0.0796102 49.8188 0 50.0975 0C50.3763 0 50.649 0.0796102 50.9156 0.23883C51.1812 0.39805 51.3774 0.636881 51.5041 0.955321L54.3552 8.04061L61.7302 8.7173C62.085 8.77037 62.3638 8.88978 62.5665 9.07554C62.7693 9.2613 62.9213 9.50013 63.0227 9.79203C63.1241 10.0839 63.1433 10.3822 63.0805 10.6868C63.0166 10.9926 62.858 11.2648 62.6045 11.5036L57.0163 16.5589L58.689 24.082C58.765 24.427 58.7397 24.7391 58.6129 25.0182C58.4862 25.2964 58.3088 25.5283 58.0807 25.714C57.8526 25.8998 57.5865 26.0059 57.2824 26.0325C56.9783 26.059 56.6868 25.9794 56.4081 25.7936L50.0975 21.8131Z" fill="#DA6D18"/>
<path d="M84.8143 21.8131L78.5038 25.7936C78.225 25.9794 77.9336 26.059 77.6295 26.0325C77.3254 26.0059 77.0592 25.8998 76.8312 25.714C76.6031 25.5283 76.4257 25.2964 76.2989 25.0182C76.1722 24.7391 76.1469 24.427 76.2229 24.082L77.8956 16.5589L72.3074 11.5036C72.0539 11.2648 71.8958 10.9926 71.8329 10.6868C71.7691 10.3822 71.7878 10.0839 71.8892 9.79203C71.9906 9.50013 72.1426 9.2613 72.3454 9.07554C72.5481 8.88978 72.8269 8.77037 73.1817 8.7173L80.5566 8.04061L83.4078 0.955321C83.5345 0.636881 83.7312 0.39805 83.9978 0.23883C84.2634 0.0796102 84.5356 0 84.8143 0C85.0931 0 85.3658 0.0796102 85.6324 0.23883C85.898 0.39805 86.0942 0.636881 86.2209 0.955321L89.072 8.04061L96.447 8.7173C96.8018 8.77037 97.0806 8.88978 97.2833 9.07554C97.4861 9.2613 97.6381 9.50013 97.7395 9.79203C97.8409 10.0839 97.8601 10.3822 97.7973 10.6868C97.7334 10.9926 97.5748 11.2648 97.3213 11.5036L91.7331 16.5589L93.4058 24.082C93.4818 24.427 93.4564 24.7391 93.3297 25.0182C93.203 25.2964 93.0256 25.5283 92.7975 25.714C92.5694 25.8998 92.3033 26.0059 91.9992 26.0325C91.6951 26.059 91.4036 25.9794 91.1248 25.7936L84.8143 21.8131Z" fill="#DA6D18"/>
<path d="M119.53 21.8131L113.22 25.7936C112.941 25.9794 112.649 26.059 112.345 26.0325C112.041 26.0059 111.775 25.8998 111.547 25.714C111.319 25.5283 111.141 25.2964 111.015 25.0182C110.888 24.7391 110.863 24.427 110.939 24.082L112.611 16.5589L107.023 11.5036C106.77 11.2648 106.612 10.9926 106.549 10.6868C106.485 10.3822 106.504 10.0839 106.605 9.79203C106.706 9.50013 106.858 9.2613 107.061 9.07554C107.264 8.88978 107.543 8.77037 107.898 8.7173L115.272 8.04061L118.124 0.955321C118.25 0.636881 118.447 0.39805 118.714 0.23883C118.979 0.0796102 119.251 0 119.53 0C119.809 0 120.082 0.0796102 120.348 0.23883C120.614 0.39805 120.81 0.636881 120.937 0.955321L123.788 8.04061L131.163 8.7173C131.518 8.77037 131.796 8.88978 131.999 9.07554C132.202 9.2613 132.354 9.50013 132.455 9.79203C132.557 10.0839 132.576 10.3822 132.513 10.6868C132.449 10.9926 132.291 11.2648 132.037 11.5036L126.449 16.5589L128.122 24.082C128.198 24.427 128.172 24.7391 128.046 25.0182C127.919 25.2964 127.741 25.5283 127.513 25.714C127.285 25.8998 127.019 26.0059 126.715 26.0325C126.411 26.059 126.119 25.9794 125.841 25.7936L119.53 21.8131Z" fill="#DA6D18"/>
<path d="M154.247 21.8131L147.936 25.7936C147.658 25.9794 147.366 26.059 147.062 26.0325C146.758 26.0059 146.492 25.8998 146.264 25.714C146.036 25.5283 145.858 25.2964 145.732 25.0182C145.605 24.7391 145.58 24.427 145.656 24.082L147.328 16.5589L141.74 11.5036C141.487 11.2648 141.328 10.9926 141.266 10.6868C141.202 10.3822 141.22 10.0839 141.322 9.79203C141.423 9.50013 141.575 9.2613 141.778 9.07554C141.981 8.88978 142.26 8.77037 142.614 8.7173L149.989 8.04061L152.84 0.955321C152.967 0.636881 153.164 0.39805 153.43 0.23883C153.696 0.0796102 153.968 0 154.247 0C154.526 0 154.798 0.0796102 155.065 0.23883C155.331 0.39805 155.527 0.636881 155.654 0.955321L158.505 8.04061L165.88 8.7173C166.234 8.77037 166.513 8.88978 166.716 9.07554C166.919 9.2613 167.071 9.50013 167.172 9.79203C167.273 10.0839 167.293 10.3822 167.23 10.6868C167.166 10.9926 167.007 11.2648 166.754 11.5036L161.166 16.5589L162.838 24.082C162.914 24.427 162.889 24.7391 162.762 25.0182C162.636 25.2964 162.458 25.5283 162.23 25.714C162.002 25.8998 161.736 26.0059 161.432 26.0325C161.128 26.059 160.836 25.9794 160.557 25.7936L154.247 21.8131Z" fill="#DA6D18"/>
</svg>
