<svg width="421" height="128" viewBox="0 0 421 128" fill="none" xmlns="http://www.w3.org/2000/svg">
<g clip-path="url(#clip0_52_342)">
<path d="M56.3667 114.033H53.4C53.4 114.584 53.5534 115.124 53.8431 115.593C54.1327 116.062 54.5471 116.44 55.0399 116.687C55.5327 116.933 56.0844 117.037 56.6331 116.988C57.1818 116.939 57.7059 116.737 58.1467 116.407L56.3667 114.033ZM68.2333 105.133L70.0133 102.76C69.4998 102.375 68.8752 102.167 68.2333 102.167C67.5914 102.167 66.9669 102.375 66.4533 102.76L68.2333 105.133ZM80.1 114.033L78.32 116.407C78.7608 116.737 79.2849 116.939 79.8336 116.988C80.3823 117.037 80.934 116.933 81.4267 116.687C81.9195 116.44 82.3339 116.062 82.6236 115.593C82.9132 115.124 83.0667 114.584 83.0667 114.033H80.1ZM68.2333 93.2667C64.2993 93.2667 60.5264 91.7039 57.7446 88.9221C54.9628 86.1403 53.4 82.3674 53.4 78.4333H47.4667C47.4667 83.941 49.6546 89.2231 53.5491 93.1176C57.4436 97.0121 62.7257 99.2 68.2333 99.2V93.2667ZM83.0667 78.4333C83.0667 82.3674 81.5039 86.1403 78.7221 88.9221C75.9403 91.7039 72.1674 93.2667 68.2333 93.2667V99.2C73.741 99.2 79.0231 97.0121 82.9176 93.1176C86.8121 89.2231 89 83.941 89 78.4333H83.0667ZM68.2333 63.6C72.1674 63.6 75.9403 65.1628 78.7221 67.9446C81.5039 70.7264 83.0667 74.4993 83.0667 78.4333H89C89 72.9257 86.8121 67.6436 82.9176 63.7491C79.0231 59.8546 73.741 57.6667 68.2333 57.6667V63.6ZM68.2333 57.6667C62.7257 57.6667 57.4436 59.8546 53.5491 63.7491C49.6546 67.6436 47.4667 72.9257 47.4667 78.4333H53.4C53.4 74.4993 54.9628 70.7264 57.7446 67.9446C60.5264 65.1628 64.2993 63.6 68.2333 63.6V57.6667ZM53.4 90.3V114.033H59.3333V90.3H53.4ZM58.1467 116.407L70.0133 107.507L66.4533 102.76L54.5867 111.66L58.1467 116.407ZM66.4533 107.507L78.32 116.407L81.88 111.66L70.0133 102.76L66.4533 107.507ZM83.0667 114.033V90.3H77.1333V114.033H83.0667ZM89 57.6667V36.9H83.0667V57.6667H89ZM80.1 28H8.9V33.9333H80.1V28ZM0 36.9V108.1H5.93333V36.9H0ZM8.9 117H47.4667V111.067H8.9V117ZM0 108.1C0 110.46 0.937676 112.724 2.60675 114.393C4.27582 116.062 6.53957 117 8.9 117V111.067C8.11319 111.067 7.35861 110.754 6.80225 110.198C6.24589 109.641 5.93333 108.887 5.93333 108.1H0ZM8.9 28C6.53957 28 4.27582 28.9377 2.60675 30.6067C0.937676 32.2758 0 34.5396 0 36.9H5.93333C5.93333 36.1132 6.24589 35.3586 6.80225 34.8023C7.35861 34.2459 8.11319 33.9333 8.9 33.9333V28ZM89 36.9C89 34.5396 88.0623 32.2758 86.3932 30.6067C84.7242 28.9377 82.4604 28 80.1 28V33.9333C80.8868 33.9333 81.6414 34.2459 82.1978 34.8023C82.7541 35.3586 83.0667 36.1132 83.0667 36.9H89ZM17.8 57.6667H47.4667V51.7333H17.8V57.6667ZM17.8 75.4667H35.6V69.5333H17.8V75.4667Z" fill="#A5A582"/>
</g>
<path d="M158.4 75.48V62.28H145.2V48.92H158.4V35.72H171.76V48.92H184.88V62.28H171.76V75.48H158.4ZM191.614 83V69.88H199.294V33.88H189.214V24.84L206.974 20.76H220.414V69.88H227.134V83H191.614ZM259.171 84.12C250.157 84.12 243.197 81.56 238.291 76.44C233.437 71.32 231.011 63.1333 231.011 51.88C231.011 40.6267 233.437 32.44 238.291 27.32C243.197 22.2 250.157 19.64 259.171 19.64C268.184 19.64 275.117 22.2 279.971 27.32C284.877 32.44 287.331 40.6267 287.331 51.88C287.331 62.28 285.064 70.2533 280.531 75.8C276.051 81.3467 268.931 84.12 259.171 84.12ZM259.171 69.88C262.797 69.88 264.611 67.9067 264.611 63.96V39.8C264.611 35.8533 262.797 33.88 259.171 33.88C255.544 33.88 253.731 35.8533 253.731 39.8V63.96C253.731 67.9067 255.544 69.88 259.171 69.88ZM317.764 84.12C308.751 84.12 301.791 81.56 296.884 76.44C292.031 71.32 289.604 63.1333 289.604 51.88C289.604 40.6267 292.031 32.44 296.884 27.32C301.791 22.2 308.751 19.64 317.764 19.64C326.778 19.64 333.711 22.2 338.564 27.32C343.471 32.44 345.924 40.6267 345.924 51.88C345.924 62.28 343.658 70.2533 339.124 75.8C334.644 81.3467 327.524 84.12 317.764 84.12ZM317.764 69.88C321.391 69.88 323.204 67.9067 323.204 63.96V39.8C323.204 35.8533 321.391 33.88 317.764 33.88C314.138 33.88 312.324 35.8533 312.324 39.8V63.96C312.324 67.9067 314.138 69.88 317.764 69.88ZM376.358 84.12C367.345 84.12 360.385 81.56 355.478 76.44C350.625 71.32 348.198 63.1333 348.198 51.88C348.198 40.6267 350.625 32.44 355.478 27.32C360.385 22.2 367.345 19.64 376.358 19.64C385.371 19.64 392.305 22.2 397.158 27.32C402.065 32.44 404.518 40.6267 404.518 51.88C404.518 62.28 402.251 70.2533 397.718 75.8C393.238 81.3467 386.118 84.12 376.358 84.12ZM376.358 69.88C379.985 69.88 381.798 67.9067 381.798 63.96V39.8C381.798 35.8533 379.985 33.88 376.358 33.88C372.731 33.88 370.918 35.8533 370.918 39.8V63.96C370.918 67.9067 372.731 69.88 376.358 69.88Z" fill="#2A2A2A"/>
<path d="M137.45 122.3C136.1 122.3 134.842 122.083 133.675 121.65C132.525 121.2 131.525 120.567 130.675 119.75C129.825 118.933 129.158 117.975 128.675 116.875C128.208 115.775 127.975 114.567 127.975 113.25C127.975 111.933 128.208 110.725 128.675 109.625C129.158 108.525 129.825 107.567 130.675 106.75C131.542 105.933 132.55 105.308 133.7 104.875C134.85 104.425 136.108 104.2 137.475 104.2C138.992 104.2 140.358 104.467 141.575 105C142.808 105.517 143.842 106.283 144.675 107.3L142.075 109.7C141.475 109.017 140.808 108.508 140.075 108.175C139.342 107.825 138.542 107.65 137.675 107.65C136.858 107.65 136.108 107.783 135.425 108.05C134.742 108.317 134.15 108.7 133.65 109.2C133.15 109.7 132.758 110.292 132.475 110.975C132.208 111.658 132.075 112.417 132.075 113.25C132.075 114.083 132.208 114.842 132.475 115.525C132.758 116.208 133.15 116.8 133.65 117.3C134.15 117.8 134.742 118.183 135.425 118.45C136.108 118.717 136.858 118.85 137.675 118.85C138.542 118.85 139.342 118.683 140.075 118.35C140.808 118 141.475 117.475 142.075 116.775L144.675 119.175C143.842 120.192 142.808 120.967 141.575 121.5C140.358 122.033 138.983 122.3 137.45 122.3ZM155.544 122.3C154.16 122.3 152.877 122.075 151.694 121.625C150.527 121.175 149.51 120.542 148.644 119.725C147.794 118.908 147.127 117.95 146.644 116.85C146.177 115.75 145.944 114.55 145.944 113.25C145.944 111.95 146.177 110.75 146.644 109.65C147.127 108.55 147.802 107.592 148.669 106.775C149.535 105.958 150.552 105.325 151.719 104.875C152.885 104.425 154.152 104.2 155.519 104.2C156.902 104.2 158.169 104.425 159.319 104.875C160.485 105.325 161.494 105.958 162.344 106.775C163.21 107.592 163.885 108.55 164.369 109.65C164.852 110.733 165.094 111.933 165.094 113.25C165.094 114.55 164.852 115.758 164.369 116.875C163.885 117.975 163.21 118.933 162.344 119.75C161.494 120.55 160.485 121.175 159.319 121.625C158.169 122.075 156.91 122.3 155.544 122.3ZM155.519 118.85C156.302 118.85 157.019 118.717 157.669 118.45C158.335 118.183 158.919 117.8 159.419 117.3C159.919 116.8 160.302 116.208 160.569 115.525C160.852 114.842 160.994 114.083 160.994 113.25C160.994 112.417 160.852 111.658 160.569 110.975C160.302 110.292 159.919 109.7 159.419 109.2C158.935 108.7 158.36 108.317 157.694 108.05C157.027 107.783 156.302 107.65 155.519 107.65C154.735 107.65 154.01 107.783 153.344 108.05C152.694 108.317 152.119 108.7 151.619 109.2C151.119 109.7 150.727 110.292 150.444 110.975C150.177 111.658 150.044 112.417 150.044 113.25C150.044 114.067 150.177 114.825 150.444 115.525C150.727 116.208 151.11 116.8 151.594 117.3C152.094 117.8 152.677 118.183 153.344 118.45C154.01 118.717 154.735 118.85 155.519 118.85ZM168.138 122V104.5H171.488L178.938 116.85H177.163L184.488 104.5H187.813L187.863 122H184.063L184.038 110.325H184.738L178.888 120.15H177.063L171.088 110.325H171.938V122H168.138ZM192.014 122V104.5H199.589C201.156 104.5 202.506 104.758 203.639 105.275C204.773 105.775 205.648 106.5 206.264 107.45C206.881 108.4 207.189 109.533 207.189 110.85C207.189 112.15 206.881 113.275 206.264 114.225C205.648 115.175 204.773 115.908 203.639 116.425C202.506 116.925 201.156 117.175 199.589 117.175H194.264L196.064 115.35V122H192.014ZM196.064 115.8L194.264 113.875H199.364C200.614 113.875 201.548 113.608 202.164 113.075C202.781 112.542 203.089 111.8 203.089 110.85C203.089 109.883 202.781 109.133 202.164 108.6C201.548 108.067 200.614 107.8 199.364 107.8H194.264L196.064 105.875V115.8ZM210.081 122V104.5H214.131V118.7H222.906V122H210.081ZM228.894 111.55H237.319V114.7H228.894V111.55ZM229.194 118.75H238.719V122H225.169V104.5H238.394V107.75H229.194V118.75ZM245.566 122V107.8H239.966V104.5H255.216V107.8H249.616V122H245.566ZM261.12 111.55H269.545V114.7H261.12V111.55ZM261.42 118.75H270.945V122H257.395V104.5H270.62V107.75H261.42V118.75ZM274.168 122V104.5H282.118C284.018 104.5 285.693 104.867 287.143 105.6C288.593 106.317 289.726 107.325 290.543 108.625C291.359 109.925 291.768 111.467 291.768 113.25C291.768 115.017 291.359 116.558 290.543 117.875C289.726 119.175 288.593 120.192 287.143 120.925C285.693 121.642 284.018 122 282.118 122H274.168ZM278.218 118.675H281.918C283.084 118.675 284.093 118.458 284.943 118.025C285.809 117.575 286.476 116.942 286.943 116.125C287.426 115.308 287.668 114.35 287.668 113.25C287.668 112.133 287.426 111.175 286.943 110.375C286.476 109.558 285.809 108.933 284.943 108.5C284.093 108.05 283.084 107.825 281.918 107.825H278.218V118.675ZM301.902 122V104.5H309.477C311.044 104.5 312.394 104.758 313.527 105.275C314.66 105.775 315.535 106.5 316.152 107.45C316.769 108.4 317.077 109.533 317.077 110.85C317.077 112.15 316.769 113.275 316.152 114.225C315.535 115.175 314.66 115.908 313.527 116.425C312.394 116.925 311.044 117.175 309.477 117.175H304.152L305.952 115.35V122H301.902ZM305.952 115.8L304.152 113.875H309.252C310.502 113.875 311.435 113.608 312.052 113.075C312.669 112.542 312.977 111.8 312.977 110.85C312.977 109.883 312.669 109.133 312.052 108.6C311.435 108.067 310.502 107.8 309.252 107.8H304.152L305.952 105.875V115.8ZM319.969 122V104.5H327.544C329.11 104.5 330.46 104.758 331.594 105.275C332.727 105.775 333.602 106.5 334.219 107.45C334.835 108.4 335.144 109.533 335.144 110.85C335.144 112.15 334.835 113.275 334.219 114.225C333.602 115.158 332.727 115.875 331.594 116.375C330.46 116.875 329.11 117.125 327.544 117.125H322.219L324.019 115.35V122H319.969ZM331.094 122L326.719 115.65H331.044L335.469 122H331.094ZM324.019 115.8L322.219 113.9H327.319C328.569 113.9 329.502 113.633 330.119 113.1C330.735 112.55 331.044 111.8 331.044 110.85C331.044 109.883 330.735 109.133 330.119 108.6C329.502 108.067 328.569 107.8 327.319 107.8H322.219L324.019 105.875V115.8ZM346.852 122.3C345.469 122.3 344.186 122.075 343.002 121.625C341.836 121.175 340.819 120.542 339.952 119.725C339.102 118.908 338.436 117.95 337.952 116.85C337.486 115.75 337.252 114.55 337.252 113.25C337.252 111.95 337.486 110.75 337.952 109.65C338.436 108.55 339.111 107.592 339.977 106.775C340.844 105.958 341.861 105.325 343.027 104.875C344.194 104.425 345.461 104.2 346.827 104.2C348.211 104.2 349.477 104.425 350.627 104.875C351.794 105.325 352.802 105.958 353.652 106.775C354.519 107.592 355.194 108.55 355.677 109.65C356.161 110.733 356.402 111.933 356.402 113.25C356.402 114.55 356.161 115.758 355.677 116.875C355.194 117.975 354.519 118.933 353.652 119.75C352.802 120.55 351.794 121.175 350.627 121.625C349.477 122.075 348.219 122.3 346.852 122.3ZM346.827 118.85C347.611 118.85 348.327 118.717 348.977 118.45C349.644 118.183 350.227 117.8 350.727 117.3C351.227 116.8 351.611 116.208 351.877 115.525C352.161 114.842 352.302 114.083 352.302 113.25C352.302 112.417 352.161 111.658 351.877 110.975C351.611 110.292 351.227 109.7 350.727 109.2C350.244 108.7 349.669 108.317 349.002 108.05C348.336 107.783 347.611 107.65 346.827 107.65C346.044 107.65 345.319 107.783 344.652 108.05C344.002 108.317 343.427 108.7 342.927 109.2C342.427 109.7 342.036 110.292 341.752 110.975C341.486 111.658 341.352 112.417 341.352 113.25C341.352 114.067 341.486 114.825 341.752 115.525C342.036 116.208 342.419 116.8 342.902 117.3C343.402 117.8 343.986 118.183 344.652 118.45C345.319 118.717 346.044 118.85 346.827 118.85ZM362.305 122.3C361.122 122.3 360.03 122.083 359.03 121.65C358.047 121.2 357.238 120.567 356.605 119.75L358.855 117.05C359.338 117.683 359.847 118.167 360.38 118.5C360.913 118.817 361.488 118.975 362.105 118.975C363.755 118.975 364.58 118.008 364.58 116.075V107.75H358.43V104.5H368.605V115.85C368.605 118.017 368.072 119.633 367.005 120.7C365.938 121.767 364.372 122.3 362.305 122.3ZM376.33 111.55H384.755V114.7H376.33V111.55ZM376.63 118.75H386.155V122H372.605V104.5H385.83V107.75H376.63V118.75ZM397.753 122.3C396.403 122.3 395.144 122.083 393.978 121.65C392.828 121.2 391.828 120.567 390.978 119.75C390.128 118.933 389.461 117.975 388.978 116.875C388.511 115.775 388.278 114.567 388.278 113.25C388.278 111.933 388.511 110.725 388.978 109.625C389.461 108.525 390.128 107.567 390.978 106.75C391.844 105.933 392.853 105.308 394.003 104.875C395.153 104.425 396.411 104.2 397.778 104.2C399.294 104.2 400.661 104.467 401.878 105C403.111 105.517 404.144 106.283 404.978 107.3L402.378 109.7C401.778 109.017 401.111 108.508 400.378 108.175C399.644 107.825 398.844 107.65 397.978 107.65C397.161 107.65 396.411 107.783 395.728 108.05C395.044 108.317 394.453 108.7 393.953 109.2C393.453 109.7 393.061 110.292 392.778 110.975C392.511 111.658 392.378 112.417 392.378 113.25C392.378 114.083 392.511 114.842 392.778 115.525C393.061 116.208 393.453 116.8 393.953 117.3C394.453 117.8 395.044 118.183 395.728 118.45C396.411 118.717 397.161 118.85 397.978 118.85C398.844 118.85 399.644 118.683 400.378 118.35C401.111 118 401.778 117.475 402.378 116.775L404.978 119.175C404.144 120.192 403.111 120.967 401.878 121.5C400.661 122.033 399.286 122.3 397.753 122.3ZM411.167 122V107.8H405.567V104.5H420.817V107.8H415.217V122H411.167Z" fill="#2A2A2A"/>
<defs>
<clipPath id="clip0_52_342">
<rect width="89" height="89" fill="white" transform="translate(0 28)"/>
</clipPath>
</defs>
</svg>
