<svg width="25" height="18" viewBox="0 0 25 18" fill="none" xmlns="http://www.w3.org/2000/svg">
<path d="M14.6875 15.3333C15.2915 15.3333 15.7812 15.823 15.7812 16.4271C15.7812 17.0311 15.2915 17.5208 14.6875 17.5208H10.3125C9.70846 17.5208 9.21875 17.0311 9.21875 16.4271C9.21875 15.823 9.70846 15.3333 10.3125 15.3333H14.6875ZM19.0625 8.04167C19.6665 8.04167 20.1562 8.53138 20.1562 9.13542C20.1562 9.73946 19.6665 10.2292 19.0625 10.2292H5.9375C5.33344 10.2292 4.84375 9.73946 4.84375 9.13542C4.84375 8.53138 5.33344 8.04167 5.9375 8.04167H19.0625ZM23.4375 0.75C24.0415 0.75 24.5312 1.23969 24.5312 1.84375C24.5312 2.44781 24.0415 2.9375 23.4375 2.9375H1.5625C0.958444 2.9375 0.46875 2.44781 0.46875 1.84375C0.46875 1.23969 0.958444 0.75 1.5625 0.75H23.4375Z" fill="#2A2A2A"/>
</svg>
