<svg width="35" height="33" viewBox="0 0 35 33" fill="none" xmlns="http://www.w3.org/2000/svg">
<path d="M17.5 27.7885L9.3729 32.6844C9.01387 32.9128 8.63853 33.0107 8.24686 32.9781C7.85519 32.9455 7.51249 32.8149 7.21873 32.5864C6.92498 32.358 6.69651 32.0727 6.53332 31.7306C6.37012 31.3873 6.33748 31.0034 6.4354 30.5791L8.58957 21.326L1.39269 15.1083C1.0663 14.8146 0.862638 14.4797 0.781694 14.1037C0.699444 13.729 0.723596 13.3621 0.854152 13.0031C0.984707 12.6441 1.18054 12.3503 1.44165 12.1219C1.70276 11.8934 2.06179 11.7465 2.51873 11.6812L12.0167 10.8489L15.6885 2.13435C15.8517 1.74268 16.105 1.44893 16.4484 1.2531C16.7904 1.05727 17.141 0.959351 17.5 0.959351C17.859 0.959351 18.2102 1.05727 18.5536 1.2531C18.8956 1.44893 19.1482 1.74268 19.3114 2.13435L22.9833 10.8489L32.4812 11.6812C32.9382 11.7465 33.2972 11.8934 33.5583 12.1219C33.8194 12.3503 34.0153 12.6441 34.1458 13.0031C34.2764 13.3621 34.3012 13.729 34.2202 14.1037C34.138 14.4797 33.9337 14.8146 33.6073 15.1083L26.4104 21.326L28.5646 30.5791C28.6625 31.0034 28.6298 31.3873 28.4667 31.7306C28.3035 32.0727 28.075 32.358 27.7812 32.5864C27.4875 32.8149 27.1448 32.9455 26.7531 32.9781C26.3614 33.0107 25.9861 32.9128 25.6271 32.6844L17.5 27.7885Z" fill="#FBCD3F"/>
</svg>
