<svg width="226" height="228" viewBox="0 0 226 228" fill="none" xmlns="http://www.w3.org/2000/svg">
<path d="M225.764 106.57C225.868 108.209 225.939 109.858 225.974 111.516L225.474 111.526C225.491 112.349 225.5 113.173 225.5 114C225.5 114.827 225.491 115.651 225.474 116.474L225.974 116.485C225.939 118.142 225.868 119.791 225.764 121.431L225.265 121.399C225.16 123.045 225.02 124.682 224.846 126.309L225.343 126.362C225.167 128.01 224.956 129.647 224.711 131.272L224.217 131.198C223.971 132.83 223.691 134.451 223.377 136.059L223.867 136.155C223.55 137.781 223.198 139.395 222.813 140.995L222.327 140.878C221.941 142.481 221.522 144.071 221.069 145.646L221.55 145.784C221.093 147.375 220.602 148.952 220.079 150.513L219.605 150.355C219.082 151.917 218.526 153.464 217.938 154.994L218.405 155.174C217.812 156.718 217.186 158.246 216.529 159.757L216.071 159.557C215.414 161.067 214.726 162.56 214.007 164.034L214.456 164.254C213.732 165.74 212.976 167.208 212.19 168.656L211.751 168.418C210.966 169.865 210.15 171.292 209.306 172.7L209.734 172.957C208.884 174.375 208.003 175.772 207.094 177.148L206.677 176.872C205.77 178.245 204.834 179.597 203.87 180.927L204.275 181.22C203.305 182.558 202.308 183.874 201.282 185.166L200.891 184.856C199.869 186.144 198.819 187.41 197.744 188.652L198.122 188.979C197.04 190.227 195.932 191.452 194.799 192.651L194.436 192.308C193.306 193.503 192.151 194.673 190.972 195.817L191.32 196.176C190.135 197.326 188.926 198.45 187.692 199.547L187.36 199.173C186.131 200.265 184.88 201.331 183.605 202.369L183.92 202.757C182.641 203.799 181.338 204.814 180.013 205.8L179.714 205.398C178.396 206.379 177.056 207.332 175.695 208.255L175.976 208.669C174.61 209.595 173.224 210.492 171.817 211.359L171.555 210.933C170.157 211.795 168.739 212.626 167.302 213.427L167.545 213.864C166.105 214.666 164.645 215.438 163.167 216.178L162.943 215.731C161.476 216.465 159.99 217.169 158.487 217.84L158.691 218.296C157.187 218.968 155.664 219.608 154.126 220.215L153.943 219.75C152.417 220.351 150.875 220.92 149.317 221.456L149.48 221.929C147.922 222.464 146.349 222.967 144.762 223.435L144.621 222.955C143.048 223.419 141.462 223.849 139.861 224.245L139.981 224.73C138.383 225.125 136.771 225.486 135.147 225.811L135.049 225.321C133.442 225.643 131.823 225.931 130.192 226.183L130.269 226.677C128.644 226.929 127.008 227.145 125.361 227.326L125.307 226.829C123.681 227.007 122.044 227.151 120.398 227.259L120.43 227.757C118.791 227.865 117.142 227.937 115.484 227.973L115.473 227.473C114.651 227.491 113.827 227.5 113 227.5C112.173 227.5 111.349 227.491 110.526 227.473L110.516 227.973C108.858 227.937 107.209 227.865 105.57 227.757L105.602 227.259C103.956 227.151 102.319 227.007 100.693 226.829L100.639 227.326C98.992 227.145 97.356 226.929 95.7314 226.677L95.8078 226.183C94.1772 225.931 92.5581 225.643 90.9513 225.321L90.853 225.811C89.2287 225.486 87.617 225.125 86.0186 224.73L86.1386 224.245C84.5384 223.849 82.9517 223.419 81.3793 222.955L81.2379 223.435C79.6505 222.967 78.0776 222.464 76.52 221.929L76.6826 221.456C75.1252 220.92 73.5832 220.351 72.0574 219.75L71.874 220.215C70.3355 219.608 68.8135 218.968 67.3087 218.296L67.5126 217.84C66.0097 217.169 64.5241 216.465 63.0567 215.731L62.8328 216.178C61.3548 215.438 59.8952 214.666 58.4548 213.864L58.6981 213.427C57.2609 212.626 55.8429 211.795 54.445 210.933L54.1827 211.359C52.776 210.492 51.3895 209.595 50.0242 208.669L50.3049 208.255C48.9438 207.332 47.6038 206.379 46.2858 205.398L45.9873 205.8C44.6623 204.814 43.3595 203.799 42.0796 202.757L42.3953 202.369C41.1205 201.331 39.8686 200.265 38.6404 199.173L38.3082 199.547C37.0745 198.45 35.8648 197.326 34.6798 196.176L35.028 195.817C33.8485 194.673 32.6937 193.503 31.5645 192.308L31.2011 192.651C30.0676 191.452 28.9597 190.227 27.8784 188.979L28.2563 188.652C27.1807 187.41 26.1314 186.144 25.1094 184.856L24.7177 185.166C23.6925 183.874 22.6946 182.558 21.7249 181.22L22.1298 180.927C21.1659 179.597 20.23 178.245 19.323 176.872L18.9058 177.148C17.9965 175.772 17.1162 174.375 16.2656 172.957L16.6943 172.7C15.8496 171.292 15.0343 169.865 14.2494 168.418L13.8099 168.656C13.0239 167.208 12.2681 165.74 11.5435 164.254L11.993 164.034C11.2739 162.56 10.5857 161.067 9.92908 159.557L9.47055 159.757C8.81356 158.246 8.18811 156.718 7.59503 155.174L8.06179 154.994C7.47386 153.464 6.91788 151.917 6.3947 150.355L5.92058 150.513C5.39762 148.952 4.90727 147.375 4.45035 145.784L4.93092 145.646C4.47845 144.071 4.0589 142.481 3.67309 140.878L3.18697 140.995C2.80175 139.395 2.45001 137.781 2.13254 136.155L2.62328 136.059C2.30924 134.451 2.02889 132.83 1.783 131.198L1.28858 131.272C1.04368 129.647 0.83281 128.01 0.656726 126.362L1.15389 126.309C0.98001 124.682 0.840194 123.045 0.73518 121.399L0.236194 121.43C0.131638 119.791 0.0614353 118.142 0.026304 116.484L0.526192 116.474C0.50876 115.651 0.5 114.827 0.5 114C0.5 113.173 0.508761 112.349 0.526193 111.526L0.026305 111.515C0.061437 109.858 0.13164 108.209 0.236196 106.569L0.735183 106.601C0.840197 104.955 0.980014 103.318 1.1539 101.691L0.65673 101.638C0.832815 99.9902 1.04369 98.3534 1.28858 96.7278L1.78301 96.8023C2.0289 95.1701 2.30925 93.5494 2.62328 91.9409L2.13255 91.8451C2.45001 90.2189 2.80175 88.6052 3.18698 87.0047L3.67309 87.1217C4.05891 85.5188 4.47845 83.9292 4.93093 82.3537L4.45036 82.2157C4.90727 80.6247 5.39762 79.0481 5.92059 77.4866L6.3947 77.6454C6.91789 76.0833 7.47386 74.5364 8.06179 73.0056L7.59503 72.8263C8.18811 71.2821 8.81356 69.7542 9.47055 68.2434L9.92907 68.4428C10.5857 66.9329 11.2739 65.4402 11.993 63.9655L11.5435 63.7464C12.2681 62.2603 13.0239 60.7924 13.8099 59.3437L14.2494 59.5821C15.0343 58.1354 15.8496 56.7078 16.6943 55.3002L16.2656 55.0429C17.1162 53.6255 17.9965 52.2283 18.9058 50.8521L19.3229 51.1277C20.23 49.7549 21.1659 48.4031 22.1298 47.0733L21.7249 46.7799C22.6946 45.4421 23.6925 44.1264 24.7177 42.8337L25.1094 43.1444C26.1314 41.8558 27.1807 40.5901 28.2563 39.3483L27.8783 39.0209C28.9597 37.7725 30.0676 36.5481 31.2011 35.3486L31.5645 35.6921C32.6937 34.4971 33.8485 33.327 35.028 32.1826L34.6798 31.8238C35.8648 30.6741 37.0745 29.5502 38.3082 28.4531L38.6404 28.8267C39.8685 27.7345 41.1205 26.669 42.3953 25.6309L42.0796 25.2432C43.3594 24.201 44.6623 23.1865 45.9873 22.2004L46.2858 22.6015C47.6038 21.6206 48.9438 20.6681 50.3049 19.7447L50.0242 19.331C51.3895 18.4048 52.776 17.5078 54.1827 16.641L54.445 17.0667C55.8429 16.2053 57.2609 15.3739 58.6981 14.5732L58.4548 14.1364C59.8952 13.334 61.3548 12.5623 62.8328 11.8223L63.0567 12.2694C64.5241 11.5347 66.0097 10.8314 67.5126 10.1603L67.3087 9.70376C68.8135 9.03182 70.3355 8.39206 71.874 7.78533L72.0574 8.25046C73.5832 7.64872 75.1252 7.07963 76.6826 6.54403L76.52 6.0712C78.0776 5.53553 79.6505 5.0332 81.2379 4.56507L81.3793 5.04465C82.9518 4.58093 84.5384 4.15091 86.1386 3.75543L86.0186 3.27004C87.617 2.87499 89.2287 2.51424 90.853 2.18862L90.9513 2.67887C92.5581 2.35675 94.1772 2.06916 95.8079 1.81689L95.7314 1.32277C97.356 1.07144 98.992 0.855019 100.639 0.674284L100.693 1.1713C102.319 0.992798 103.956 0.849261 105.602 0.74145L105.57 0.242519C107.209 0.135165 108.858 0.06308 110.516 0.0270071L110.527 0.526889C111.349 0.508994 112.173 0.5 113 0.5C113.827 0.5 114.651 0.508994 115.474 0.52689L115.484 0.0270084C117.142 0.063082 118.791 0.135168 120.43 0.242522L120.398 0.741454C122.044 0.849266 123.681 0.992803 125.307 1.1713L125.361 0.674289C127.008 0.855025 128.644 1.07145 130.269 1.32278L130.192 1.8169C131.823 2.06917 133.442 2.35676 135.049 2.67887L135.147 2.18863C136.771 2.51425 138.383 2.87499 139.981 3.27004L139.861 3.75544C141.462 4.15092 143.048 4.58093 144.621 5.04465L144.762 4.56508C146.35 5.03321 147.922 5.53553 149.48 6.07121L149.317 6.54403C150.875 7.07963 152.417 7.64873 153.943 8.25047L154.126 7.78533C155.664 8.39206 157.187 9.03183 158.691 9.70376L158.487 10.1603C159.99 10.8314 161.476 11.5347 162.943 12.2694L163.167 11.8223C164.645 12.5623 166.105 13.334 167.545 14.1364L167.302 14.5732C168.739 15.3739 170.157 16.2053 171.555 17.0667L171.817 16.641C173.224 17.5078 174.61 18.4048 175.976 19.331L175.695 19.7447C177.056 20.6681 178.396 21.6206 179.714 22.6015L180.013 22.2004C181.338 23.1865 182.641 24.201 183.92 25.2432L183.605 25.6309C184.88 26.669 186.131 27.7345 187.36 28.8267L187.692 28.4531C188.926 29.5502 190.135 30.6741 191.32 31.8238L190.972 32.1826C192.151 33.327 193.306 34.4971 194.436 35.6921L194.799 35.3486C195.932 36.5481 197.04 37.7725 198.122 39.0209L197.744 39.3483C198.819 40.5901 199.869 41.8558 200.891 43.1444L201.282 42.8337C202.308 44.1264 203.305 45.4421 204.275 46.7799L203.87 47.0733C204.834 48.4031 205.77 49.7549 206.677 51.1277L207.094 50.8521C208.003 52.2283 208.884 53.6255 209.734 55.0429L209.306 55.3002C210.15 56.7078 210.966 58.1354 211.751 59.5821L212.19 59.3437C212.976 60.7924 213.732 62.2603 214.456 63.7464L214.007 63.9655C214.726 65.4402 215.414 66.9329 216.071 68.4428L216.529 68.2434C217.186 69.7542 217.812 71.2821 218.405 72.8263L217.938 73.0056C218.526 74.5364 219.082 76.0833 219.605 77.6454L220.079 77.4866C220.602 79.0481 221.093 80.6247 221.55 82.2157L221.069 82.3537C221.522 83.9292 221.941 85.5188 222.327 87.1218L222.813 87.0048C223.198 88.6053 223.55 90.219 223.867 91.8451L223.377 91.9409C223.691 93.5494 223.971 95.1702 224.217 96.8024L224.711 96.7279C224.956 98.3534 225.167 99.9903 225.343 101.638L224.846 101.691C225.02 103.318 225.16 104.955 225.265 106.601L225.764 106.57Z" stroke="#F2994A" stroke-dasharray="5 5"/>
<path d="M179.63 107.335C179.793 108.909 179.904 110.499 179.959 112.104L179.459 112.121C179.486 112.911 179.5 113.704 179.5 114.5C179.5 115.296 179.486 116.089 179.459 116.879L179.959 116.896C179.904 118.501 179.793 120.091 179.63 121.665L179.132 121.613C178.968 123.199 178.748 124.768 178.476 126.319L178.969 126.405C178.692 127.984 178.361 129.544 177.978 131.083L177.493 130.962C177.109 132.506 176.672 134.028 176.184 135.527L176.66 135.682C176.165 137.204 175.617 138.703 175.02 140.175L174.557 139.987C173.96 141.459 173.313 142.904 172.618 144.321L173.067 144.541C172.363 145.977 171.61 147.384 170.811 148.759L170.378 148.508C169.581 149.879 168.737 151.219 167.848 152.525L168.262 152.806C167.363 154.127 166.42 155.414 165.433 156.664L165.041 156.354C164.059 157.598 163.035 158.806 161.97 159.975L162.339 160.312C161.265 161.492 160.149 162.632 158.995 163.732L158.65 163.37C157.504 164.462 156.319 165.512 155.098 166.52L155.416 166.905C154.187 167.92 152.921 168.891 151.62 169.816L151.331 169.408C150.042 170.325 148.719 171.196 147.366 172.019L147.625 172.447C146.265 173.274 144.873 174.053 143.452 174.782L143.223 174.337C141.818 175.058 140.384 175.729 138.923 176.349L139.118 176.809C137.655 177.43 136.165 177.999 134.651 178.514L134.489 178.041C132.996 178.549 131.479 179.004 129.941 179.405L130.067 179.889C128.532 180.288 126.975 180.633 125.399 180.922L125.309 180.431C123.761 180.714 122.194 180.944 120.61 181.116L120.664 181.613C119.091 181.784 117.5 181.899 115.896 181.957L115.878 181.457C115.089 181.486 114.296 181.5 113.5 181.5C112.704 181.5 111.911 181.486 111.122 181.457L111.104 181.957C109.5 181.899 107.909 181.784 106.336 181.613L106.39 181.116C104.806 180.944 103.239 180.714 101.691 180.431L101.6 180.922C100.025 180.633 98.4682 180.288 96.9331 179.889L97.0591 179.405C95.5205 179.004 94.0036 178.549 92.5106 178.041L92.3495 178.514C90.8352 177.999 89.3452 177.43 87.8817 176.809L88.077 176.349C86.6162 175.729 85.182 175.058 83.7767 174.337L83.5485 174.782C82.1272 174.053 80.7351 173.274 79.3747 172.447L79.6344 172.019C78.2806 171.196 76.9582 170.325 75.6695 169.408L75.3796 169.816C74.0795 168.891 72.8134 167.92 71.5837 166.905L71.9019 166.52C70.681 165.512 69.4962 164.462 68.3498 163.37L68.005 163.732C66.8507 162.632 65.7351 161.492 64.6605 160.312L65.0302 159.975C63.9653 158.806 62.9409 157.598 61.9593 156.354L61.5668 156.664C60.5803 155.414 59.6367 154.127 58.7383 152.806L59.1517 152.525C58.2631 151.219 57.419 149.879 56.6217 148.508L56.1895 148.759C55.3898 147.384 54.6368 145.977 53.9327 144.541L54.3816 144.321C53.6867 142.904 53.0397 141.459 52.4429 139.987L51.9796 140.175C51.3826 138.703 50.8354 137.204 50.3402 135.682L50.8156 135.527C50.3279 134.028 49.891 132.506 49.5068 130.962L49.0216 131.083C48.6387 129.544 48.3078 127.984 48.031 126.405L48.5235 126.319C48.2517 124.768 48.0324 123.199 47.8675 121.613L47.3702 121.665C47.2066 120.091 47.0963 118.501 47.0411 116.896L47.5408 116.879C47.5137 116.089 47.5 115.296 47.5 114.5C47.5 113.704 47.5137 112.911 47.5408 112.121L47.0411 112.104C47.0963 110.499 47.2066 108.909 47.3702 107.335L47.8676 107.387C48.0324 105.801 48.2517 104.232 48.5235 102.681L48.031 102.595C48.3078 101.016 48.6387 99.4562 49.0216 97.9175L49.5068 98.0382C49.891 96.4943 50.3279 94.9718 50.8156 93.4727L50.3402 93.318C50.8354 91.7957 51.3826 90.2973 51.9796 88.8251L52.4429 89.013C53.0397 87.5412 53.6867 86.0958 54.3816 84.6788L53.9327 84.4586C54.6368 83.023 55.3898 81.6164 56.1895 80.2411L56.6217 80.4925C57.419 79.1212 58.2631 77.7813 59.1517 76.4749L58.7383 76.1937C59.6367 74.873 60.5803 73.5863 61.5668 72.3361L61.9593 72.6458C62.9409 71.4017 63.9653 70.194 65.0302 69.0249L64.6605 68.6882C65.7351 67.5084 66.8507 66.3677 68.005 65.2683L68.3498 65.6303C69.4962 64.5384 70.681 63.4876 71.9019 62.4802L71.5837 62.0946C72.8134 61.08 74.0795 60.1091 75.3796 59.1842L75.6695 59.5916C76.9581 58.6749 78.2806 57.8038 79.6344 56.9806L79.3747 56.5534C80.7351 55.7261 82.1272 54.9468 83.5485 54.2178L83.7767 54.6627C85.182 53.9419 86.6162 53.2706 88.077 52.6511L87.8817 52.1908C89.3452 51.5701 90.8352 51.001 92.3495 50.4857L92.5106 50.9591C94.0036 50.451 95.5205 49.9957 97.0591 49.5953L96.9331 49.1114C98.4682 48.7119 100.025 48.3665 101.601 48.0776L101.691 48.5694C103.239 48.2855 104.806 48.0564 106.39 47.8842L106.336 47.3872C107.909 47.2161 109.5 47.1007 111.104 47.043L111.122 47.5427C111.911 47.5143 112.704 47.5 113.5 47.5C114.296 47.5 115.089 47.5143 115.878 47.5427L115.896 47.043C117.5 47.1007 119.091 47.2161 120.664 47.3872L120.61 47.8842C122.194 48.0564 123.761 48.2855 125.309 48.5694L125.399 48.0776C126.975 48.3665 128.532 48.7119 130.067 49.1114L129.941 49.5953C131.479 49.9957 132.996 50.451 134.489 50.9591L134.651 50.4857C136.165 51.001 137.655 51.5701 139.118 52.1908L138.923 52.6511C140.384 53.2706 141.818 53.9419 143.223 54.6627L143.452 54.2178C144.873 54.9468 146.265 55.7261 147.625 56.5534L147.366 56.9806C148.719 57.8038 150.042 58.6749 151.331 59.5916L151.62 59.1842C152.921 60.1091 154.187 61.08 155.416 62.0946L155.098 62.4802C156.319 63.4876 157.504 64.5384 158.65 65.6303L158.995 65.2682C160.149 66.3677 161.265 67.5084 162.339 68.6882L161.97 69.0249C163.035 70.194 164.059 71.4017 165.041 72.6458L165.433 72.336C166.42 73.5863 167.363 74.873 168.262 76.1937L167.848 76.4749C168.737 77.7812 169.581 79.1212 170.378 80.4925L170.811 80.2411C171.61 81.6164 172.363 83.023 173.067 84.4586L172.618 84.6788C173.313 86.0958 173.96 87.5412 174.557 89.013L175.02 88.8251C175.617 90.2974 176.165 91.7957 176.66 93.318L176.184 93.4727C176.672 94.9718 177.109 96.4943 177.493 98.0382L177.978 97.9175C178.361 99.4562 178.692 101.016 178.969 102.595L178.476 102.681C178.748 104.232 178.968 105.801 179.132 107.387L179.63 107.335Z" stroke="#F2994A" stroke-dasharray="5 5"/>
<path d="M111.96 192L108.381 213.818H106.25L109.829 192H111.96ZM121.889 198.051L121.548 200.182H105.27L105.611 198.051H121.889ZM119.631 192L116.051 213.818H113.92L117.5 192H119.631ZM120.611 205.636L120.27 207.767H103.991L104.332 205.636H120.611Z" fill="#F2994A"/>
<path d="M84.4216 209.601L90.0685 188.526L92.6205 189.21L87.6905 207.609L87.814 207.642L93.8746 205.604L93.1798 208.198L86.9736 210.285L84.4216 209.601Z" fill="#F2994A"/>
<path d="M42.3589 176.93L43.8655 175.424L50.1029 181.661L48.5963 183.168L42.3589 176.93ZM58.2989 169.729L45.1311 182.897C44.4681 183.56 43.76 183.956 43.0067 184.087C42.2534 184.217 41.5177 184.145 40.7995 183.868C40.0814 183.592 39.4461 183.178 38.8937 182.625C38.4567 182.188 38.1353 181.797 37.9294 181.45C37.7235 181.104 37.5829 180.833 37.5076 180.637L39.5566 179.612C39.6168 179.733 39.7047 179.896 39.8202 180.102C39.9307 180.303 40.114 180.531 40.3701 180.787C40.9577 181.375 41.5302 181.651 42.0877 181.616C42.6401 181.576 43.2026 181.269 43.7751 180.697L56.5211 167.951L58.2989 169.729Z" fill="#F2994A"/>
<path d="M36.9081 152.22L28.5307 157.056L27.2736 154.879L41.445 146.697L42.7021 148.874L40.3033 150.259L40.3885 150.407C41.2999 150.324 42.2102 150.487 43.1194 150.897C44.0224 151.31 44.7829 152.052 45.4008 153.123C45.9122 154.008 46.173 154.907 46.1832 155.82C46.1873 156.736 45.9093 157.618 45.3493 158.467C44.7831 159.318 43.8972 160.092 42.6917 160.788L33.687 165.987L32.4299 163.81L41.287 158.696C42.3203 158.099 42.9776 157.335 43.2589 156.401C43.5366 155.462 43.4144 154.54 42.8924 153.636C42.5799 153.095 42.1237 152.624 41.5238 152.224C40.9203 151.818 40.2224 151.589 39.4302 151.538C38.6345 151.481 37.7938 151.708 36.9081 152.22Z" fill="#F2994A"/>
<path d="M37.5579 136.244L21.7518 140.479L21.1231 138.133L23.5105 137.494L23.4664 137.329C22.6071 137.25 21.8329 136.899 21.1436 136.275C20.4543 135.651 19.9828 134.865 19.7291 133.919C19.6813 133.74 19.625 133.516 19.5602 133.247C19.4954 132.978 19.4514 132.772 19.4284 132.632L21.8981 131.97C21.8996 132.058 21.9192 132.255 21.9571 132.561C21.9863 132.862 22.0441 133.173 22.1305 133.496C22.3364 134.264 22.6814 134.907 23.1656 135.424C23.6411 135.937 24.207 136.292 24.8633 136.491C25.5109 136.686 26.1914 136.687 26.9049 136.496L36.9072 133.816L37.5579 136.244Z" fill="#F2994A"/>
<path d="M24.1563 116.459L34 116.459V118.973L17.6364 118.973L17.6364 116.544H20.1932V116.331C19.3622 115.948 18.6946 115.365 18.1903 114.584C17.679 113.803 17.4233 112.794 17.4233 111.559C17.4233 110.451 17.6506 109.481 18.1051 108.65C18.5526 107.819 19.2344 107.173 20.1506 106.711C21.0597 106.25 22.2102 106.019 23.6023 106.019L34 106.019V108.533L23.7727 108.533C22.4872 108.533 21.4858 108.867 20.7685 109.534C20.044 110.202 19.6818 111.118 19.6818 112.283C19.6818 113.085 19.8558 113.803 20.2038 114.435C20.5518 115.06 21.0597 115.554 21.7273 115.916C22.3949 116.278 23.2045 116.459 24.1563 116.459Z" fill="#F2994A"/>
<path d="M36.383 93.1395L20.5769 88.9042L21.2277 86.4757L37.0337 90.7109L36.383 93.1395ZM18.2735 86.9635C18.1466 87.4369 17.876 87.8019 17.4617 88.0585C17.0492 88.3083 16.6165 88.3725 16.1638 88.2511C15.711 88.1298 15.3684 87.8579 15.1361 87.4353C14.9055 87.0059 14.8537 86.5546 14.9805 86.0812C15.1074 85.6078 15.377 85.2463 15.7895 84.9965C16.2039 84.7399 16.6374 84.6723 17.0902 84.7936C17.543 84.9149 17.8847 85.1903 18.1152 85.6197C18.3475 86.0422 18.4003 86.4902 18.2735 86.9635Z" fill="#F2994A"/>
<path d="M32.7451 60.6443L34.5903 61.7097L30.3503 69.0537L28.505 67.9883L32.7451 60.6443ZM26.3456 63.8876L27.6027 61.7103L41.1098 69.5086C41.7249 69.8637 42.2376 70.0408 42.6482 70.04C43.0561 70.0295 43.394 69.9129 43.6619 69.6904C43.9272 69.4581 44.1522 69.1821 44.3369 68.8622C44.4754 68.6223 44.5767 68.4184 44.6409 68.2504C44.6989 68.0789 44.7453 67.9417 44.7801 67.8388L46.9918 68.5252C46.9619 68.7048 46.8983 68.9428 46.8009 69.2392C46.7098 69.5392 46.547 69.8922 46.3126 70.2981C45.9575 70.9132 45.4772 71.4396 44.8718 71.8774C44.27 72.309 43.5866 72.5623 42.8216 72.6373C42.0602 72.7062 41.2673 72.5027 40.4431 72.0268L26.3456 63.8876Z" fill="#F2994A"/>
<path d="M55.3104 48.798L48.4703 41.958L50.2481 40.1802L61.819 51.751L60.0412 53.5288L58.0826 51.5702L57.962 51.6907C58.2784 52.5495 58.3563 53.4711 58.1956 54.4554C58.0298 55.4347 57.51 56.3613 56.6362 57.2351C55.913 57.9583 55.112 58.4429 54.2332 58.689C53.3493 58.9301 52.4252 58.8899 51.461 58.5685C50.4917 58.242 49.5149 57.5866 48.5306 56.6023L41.1783 49.25L42.9561 47.4722L50.1879 54.704C51.0316 55.5477 51.9406 55.9846 52.9149 56.0147C53.8942 56.0399 54.7529 55.6833 55.4912 54.945C55.9331 54.5031 56.2696 53.9406 56.5006 53.2576C56.7367 52.5696 56.7768 51.8364 56.6211 51.058C56.4705 50.2745 56.0336 49.5212 55.3104 48.798Z" fill="#F2994A"/>
<path d="M70.9095 45.2909L62.7277 31.1196L64.8312 29.9051L66.067 32.0456L66.2146 31.9604C66.0681 31.11 66.2071 30.2712 66.6316 29.4439C67.056 28.6165 67.6926 27.9578 68.5414 27.4678C68.7014 27.3755 68.903 27.2631 69.1465 27.1308C69.3899 26.9984 69.5767 26.9029 69.7068 26.8442L70.9852 29.0585C70.9007 29.0826 70.7156 29.1526 70.4298 29.2684C70.1466 29.3745 69.8605 29.511 69.5714 29.6779C68.8825 30.0756 68.3509 30.5753 67.9765 31.1768C67.6048 31.7687 67.4076 32.4074 67.3851 33.0929C67.3653 33.7686 67.54 34.4264 67.9093 35.066L73.0868 44.0338L70.9095 45.2909Z" fill="#F2994A"/>
<path d="M93.4289 35.9266C91.9059 36.3346 90.5021 36.3505 89.2175 35.9741C87.9379 35.5891 86.8369 34.8694 85.9147 33.815C84.9976 32.752 84.3221 31.411 83.8882 29.7919C83.4544 28.1729 83.3671 26.6669 83.6262 25.274C83.8903 23.8724 84.4612 22.6827 85.3389 21.7048C86.2216 20.7183 87.3764 20.0339 88.8034 19.6516C89.6266 19.431 90.4763 19.3504 91.3525 19.4097C92.2287 19.469 93.0788 19.7192 93.9028 20.1601C94.725 20.5942 95.4667 21.2631 96.1279 22.1668C96.7892 23.0705 97.3174 24.2598 97.7126 25.7348L97.9884 26.7638L85.8045 30.0285L85.242 27.9292L94.9562 25.3263C94.7172 24.4345 94.3256 23.6865 93.7814 23.0823C93.244 22.4763 92.5952 22.0583 91.8351 21.8281C91.0817 21.5962 90.266 21.5978 89.3879 21.8331C88.4206 22.0923 87.648 22.5567 87.0701 23.2262C86.4971 23.8871 86.1241 24.6488 85.9508 25.5114C85.7775 26.374 85.8076 27.2409 86.041 28.1122L86.416 29.5117C86.7359 30.7054 87.2128 31.6621 87.8469 32.3819C88.4859 33.093 89.2338 33.5654 90.0905 33.7991C90.9454 34.0259 91.8634 34.0078 92.8444 33.745C93.4824 33.574 94.0348 33.3304 94.5015 33.0142C94.9732 32.6893 95.349 32.2945 95.6289 31.8298C95.907 31.3582 96.0754 30.8205 96.1341 30.2165L98.6568 30.2464C98.6231 31.1084 98.3955 31.9193 97.9742 32.6793C97.551 33.4324 96.9556 34.0919 96.1882 34.6578C95.4189 35.2169 94.4991 35.6398 93.4289 35.9266Z" fill="#F2994A"/>
<path d="M130.908 34.86L135.143 19.0539L137.49 19.6826L136.85 22.07L137.015 22.1141C137.512 21.4092 138.204 20.9143 139.089 20.6295C139.974 20.3446 140.89 20.329 141.837 20.5827C142.015 20.6304 142.237 20.6936 142.503 20.7722C142.768 20.8507 142.968 20.9152 143.102 20.9657L142.44 23.4354C142.363 23.3928 142.183 23.3114 141.899 23.1912C141.623 23.0659 141.325 22.9601 141.002 22.8737C140.234 22.6678 139.505 22.6452 138.814 22.8059C138.133 22.9616 137.542 23.2738 137.041 23.7426C136.55 24.2063 136.208 24.795 136.017 25.5084L133.337 35.5107L130.908 34.86Z" fill="#F2994A"/>
<path d="M153.453 44.1619C152.088 43.3736 151.084 42.3922 150.442 41.2177C149.809 40.0406 149.54 38.7532 149.633 37.3556C149.736 35.9553 150.207 34.5294 151.045 33.0778C151.883 31.6263 152.886 30.4996 154.054 29.6979C155.232 28.8935 156.477 28.456 157.789 28.3852C159.111 28.3118 160.411 28.6444 161.691 29.383C162.429 29.8092 163.087 30.353 163.664 31.0145C164.242 31.676 164.666 32.454 164.937 33.3485C165.211 34.2368 165.263 35.2343 165.091 36.3408C164.92 37.4474 164.453 38.6619 163.689 39.9843L163.156 40.9069L152.233 34.6001L153.319 32.718L162.029 37.7464C162.49 36.9468 162.742 36.141 162.785 35.3289C162.833 34.5205 162.67 33.7661 162.295 33.0658C161.927 32.3691 161.349 31.7935 160.562 31.339C159.694 30.8383 158.82 30.6203 157.937 30.6851C157.065 30.7473 156.263 31.0221 155.53 31.5095C154.798 31.9969 154.206 32.6312 153.755 33.4123L153.031 34.6671C152.413 35.7373 152.073 36.7511 152.013 37.7084C151.962 38.6631 152.157 39.526 152.597 40.297C153.041 41.0619 153.703 41.6982 154.583 42.206C155.155 42.5363 155.718 42.7546 156.271 42.861C156.834 42.9648 157.379 42.9514 157.906 42.8207C158.436 42.6839 158.935 42.4227 159.404 42.0372L161.167 43.8422C160.533 44.4278 159.799 44.8403 158.964 45.0798C158.132 45.313 157.244 45.3584 156.302 45.2159C155.362 45.0672 154.413 44.7159 153.453 44.1619Z" fill="#F2994A"/>
<path d="M182.976 51.5872L180.927 50.4422C181.093 50.0756 181.203 49.6688 181.258 49.2218C181.324 48.7748 181.273 48.3028 181.108 47.8056C180.942 47.3084 180.6 46.8012 180.083 46.2839C179.375 45.5758 178.622 45.1489 177.823 45.0033C177.035 44.8576 176.392 45.0334 175.895 45.5306C175.453 45.9725 175.264 46.4823 175.33 47.0598C175.395 47.6374 175.684 48.353 176.196 49.2067L177.492 51.3461C178.275 52.6318 178.662 53.7869 178.652 54.8114C178.647 55.8309 178.24 56.7449 177.431 57.5534C176.769 58.2163 175.985 58.6181 175.081 58.7587C174.182 58.9044 173.243 58.7888 172.264 58.4122C171.284 58.0355 170.345 57.3977 169.446 56.4988C168.266 55.3186 167.546 54.0857 167.284 52.8C167.023 51.5144 167.282 50.2764 168.06 49.0862L170.17 50.3518C169.708 51.1352 169.544 51.9061 169.68 52.6644C169.821 53.4278 170.255 54.1736 170.983 54.9018C171.812 55.7304 172.645 56.2125 173.484 56.3481C174.333 56.4837 175.006 56.3029 175.503 55.8057C175.905 55.404 176.101 54.9269 176.091 54.3745C176.086 53.817 175.86 53.1792 175.413 52.461L173.936 50.0806C173.128 48.7698 172.738 47.6022 172.768 46.5777C172.809 45.5532 173.228 44.6417 174.026 43.8432C174.679 43.1903 175.44 42.7961 176.309 42.6605C177.183 42.5299 178.082 42.6404 179.006 42.9919C179.935 43.3485 180.806 43.9336 181.62 44.7472C182.765 45.8922 183.413 47.0422 183.563 48.1973C183.719 49.3574 183.523 50.4874 182.976 51.5872Z" fill="#F2994A"/>
<path d="M198.786 68.492L196.941 69.5574L192.701 62.2134L194.546 61.1481L198.786 68.492ZM199.177 61.3283L200.434 63.5057L186.927 71.3039C186.312 71.6591 185.902 72.0146 185.697 72.3705C185.503 72.729 185.435 73.08 185.493 73.4233C185.562 73.7692 185.688 74.102 185.873 74.4219C186.012 74.6617 186.138 74.8515 186.251 74.991C186.37 75.127 186.466 75.2359 186.538 75.3175L184.838 76.8896C184.697 76.7739 184.523 76.5998 184.315 76.3673C184.1 76.1383 183.876 75.8209 183.642 75.4149C183.287 74.7999 183.071 74.1207 182.994 73.3776C182.922 72.6405 183.044 71.922 183.361 71.222C183.683 70.5282 184.255 69.9433 185.079 69.4675L199.177 61.3283Z" fill="#F2994A"/>
<path d="M189.961 92.0108C189.579 90.5839 189.583 89.2409 189.974 87.9819C190.366 86.7297 191.092 85.6381 192.151 84.7072C193.213 83.7832 194.56 83.1024 196.192 82.6649C197.839 82.2237 199.356 82.1371 200.744 82.4049C202.134 82.6795 203.312 83.261 204.277 84.1492C205.245 85.0443 205.92 86.2053 206.303 87.6322C206.685 89.0592 206.68 90.3987 206.288 91.6509C205.897 92.9099 205.168 94.0024 204.1 94.9283C203.033 95.861 201.677 96.548 200.031 96.9892C198.398 97.4266 196.89 97.5071 195.507 97.2306C194.126 96.961 192.952 96.3786 191.984 95.4836C191.018 94.5953 190.344 93.4378 189.961 92.0108ZM192.143 91.4263C192.433 92.5102 192.95 93.3276 193.693 93.8784C194.437 94.4293 195.306 94.7515 196.302 94.845C197.297 94.9385 198.323 94.8437 199.38 94.5606C200.436 94.2775 201.376 93.8457 202.198 93.265C203.02 92.6844 203.619 91.9689 203.994 91.1184C204.369 90.2679 204.412 89.3007 204.121 88.2168C203.831 87.1328 203.31 86.3164 202.56 85.7674C201.81 85.2183 200.934 84.898 199.932 84.8063C198.929 84.7147 197.9 84.8104 196.843 85.0934C195.787 85.3765 194.851 85.8075 194.035 86.3863C193.22 86.9651 192.628 87.6788 192.26 88.5274C191.891 89.3761 191.853 90.3423 192.143 91.4263Z" fill="#F2994A"/>
<path d="M193 109.22H209.364V111.649H206.892V111.82C207.702 112.118 208.359 112.658 208.863 113.439C209.367 114.22 209.619 115.101 209.619 116.081C209.619 116.266 209.616 116.496 209.609 116.773C209.602 117.05 209.591 117.26 209.577 117.402H207.02C207.041 117.317 207.073 117.121 207.116 116.816C207.165 116.518 207.19 116.202 207.19 115.868C207.19 115.072 207.023 114.362 206.69 113.737C206.363 113.119 205.908 112.629 205.326 112.267C204.751 111.912 204.094 111.734 203.355 111.734H193V109.22Z" fill="#F2994A"/>
<path d="M190.121 132.23C190.389 131.228 190.821 130.37 191.417 129.655C192.02 128.941 192.746 128.441 193.595 128.154C194.451 127.868 195.393 127.864 196.422 128.139C197.328 128.382 198.014 128.757 198.481 129.264C198.955 129.774 199.273 130.37 199.436 131.053C199.598 131.736 199.662 132.459 199.627 133.222C199.596 133.993 199.531 134.759 199.43 135.519C199.297 136.512 199.181 137.316 199.082 137.929C198.989 138.551 198.985 139.02 199.069 139.337C199.151 139.661 199.388 139.875 199.779 139.98L199.861 140.002C200.877 140.274 201.74 140.207 202.452 139.802C203.161 139.404 203.666 138.646 203.965 137.528C204.276 136.369 204.266 135.392 203.935 134.597C203.603 133.802 203.186 133.194 202.681 132.772L204.122 130.688C204.972 131.357 205.573 132.106 205.924 132.935C206.28 133.773 206.455 134.629 206.449 135.502C206.448 136.384 206.341 137.223 206.128 138.019C205.992 138.527 205.774 139.093 205.474 139.719C205.179 140.353 204.764 140.929 204.228 141.447C203.69 141.972 202.992 142.341 202.134 142.552C201.276 142.763 200.219 142.7 198.964 142.364L188.55 139.574L189.201 137.145L191.341 137.719L191.374 137.595C191.075 137.339 190.782 136.966 190.494 136.477C190.206 135.988 190.01 135.388 189.906 134.676C189.803 133.965 189.874 133.149 190.121 132.23ZM192.203 133.185C191.946 134.145 191.917 135.005 192.118 135.765C192.317 136.532 192.67 137.163 193.177 137.659C193.682 138.162 194.263 138.502 194.922 138.678L197.145 139.274C197.049 139.138 196.996 138.881 196.987 138.504C196.983 138.135 197.004 137.714 197.05 137.241C197.101 136.777 197.156 136.325 197.215 135.885C197.279 135.453 197.329 135.103 197.364 134.833C197.451 134.179 197.475 133.554 197.437 132.955C197.404 132.365 197.251 131.854 196.977 131.42C196.709 130.995 196.266 130.7 195.648 130.535C194.804 130.309 194.083 130.45 193.483 130.958C192.889 131.475 192.462 132.218 192.203 133.185Z" fill="#F2994A"/>
<path d="M194.255 164.356L192.41 163.29L196.65 155.946L198.495 157.012L194.255 164.356ZM200.654 161.112L199.397 163.29L185.89 155.491C185.275 155.136 184.762 154.959 184.352 154.96C183.944 154.971 183.606 155.087 183.338 155.31C183.073 155.542 182.848 155.818 182.663 156.138C182.524 156.378 182.423 156.582 182.359 156.75C182.301 156.921 182.255 157.058 182.22 157.161L180.008 156.475C180.038 156.295 180.102 156.057 180.199 155.761C180.29 155.461 180.453 155.108 180.687 154.702C181.042 154.087 181.523 153.56 182.128 153.123C182.73 152.691 183.413 152.438 184.178 152.363C184.94 152.294 185.733 152.497 186.557 152.973L200.654 161.112Z" fill="#F2994A"/>
<path d="M170.605 167.825L182.176 179.396L180.398 181.174L168.827 169.603L170.605 167.825ZM183.2 182.228C183.547 181.882 183.963 181.701 184.451 181.686C184.933 181.676 185.34 181.837 185.671 182.168C186.002 182.5 186.163 182.906 186.153 183.389C186.138 183.876 185.957 184.293 185.611 184.639C185.264 184.986 184.85 185.164 184.368 185.174C183.881 185.189 183.471 185.031 183.14 184.699C182.808 184.368 182.65 183.959 182.665 183.471C182.675 182.989 182.854 182.575 183.2 182.228Z" fill="#F2994A"/>
<path d="M153.081 181.053C154.36 180.314 155.658 179.971 156.975 180.022C158.286 180.077 159.529 180.496 160.702 181.278C161.869 182.064 162.875 183.189 163.721 184.653C164.573 186.129 165.049 187.572 165.15 188.982C165.244 190.395 164.987 191.684 164.379 192.847C163.765 194.013 162.819 194.966 161.539 195.704C160.26 196.443 158.965 196.785 157.654 196.73C156.336 196.678 155.092 196.257 153.922 195.465C152.745 194.676 151.73 193.544 150.878 192.068C150.033 190.604 149.565 189.168 149.474 187.761C149.377 186.357 149.635 185.072 150.25 183.905C150.857 182.743 151.801 181.792 153.081 181.053ZM154.21 183.009C153.238 183.57 152.582 184.281 152.242 185.141C151.903 186.002 151.817 186.925 151.984 187.911C152.151 188.897 152.508 189.863 153.055 190.81C153.602 191.758 154.262 192.553 155.036 193.197C155.81 193.841 156.656 194.235 157.574 194.377C158.493 194.519 159.438 194.309 160.41 193.748C161.382 193.187 162.036 192.473 162.372 191.607C162.708 190.74 162.791 189.811 162.62 188.819C162.449 187.827 162.09 186.857 161.543 185.91C160.996 184.963 160.338 184.17 159.568 183.532C158.798 182.894 157.955 182.507 157.04 182.371C156.125 182.235 155.182 182.448 154.21 183.009Z" fill="#F2994A"/>
<path d="M140.448 197.775L137.9 188.266L140.329 187.616L144.564 203.422L142.218 204.05L141.556 201.581L141.35 201.636C141.195 202.538 140.805 203.333 140.181 204.023C139.559 204.719 138.651 205.227 137.457 205.547C136.387 205.833 135.392 205.865 134.471 205.641C133.553 205.424 132.752 204.932 132.069 204.167C131.388 203.408 130.867 202.357 130.507 201.012L127.816 190.969L130.244 190.318L132.891 200.197C133.224 201.438 133.806 202.319 134.636 202.839C135.468 203.366 136.447 203.479 137.572 203.178C138.347 202.97 138.995 202.616 139.516 202.116C140.029 201.618 140.375 201 140.552 200.262C140.729 199.523 140.694 198.694 140.448 197.775Z" fill="#F2994A"/>
</svg>
