<svg width="36" height="36" viewBox="0 0 36 36" fill="none" xmlns="http://www.w3.org/2000/svg">
<path d="M17.9996 30.1594L9.27454 35.6629C8.88909 35.9197 8.48613 36.0298 8.06564 35.9931C7.64516 35.9564 7.27723 35.8097 6.96187 35.5528C6.6465 35.296 6.40122 34.9753 6.22602 34.5908C6.05082 34.2048 6.01578 33.7734 6.1209 33.2964L8.43357 22.8947L0.70715 15.9052C0.356746 15.575 0.138094 15.1986 0.0511935 14.7759C-0.0371084 14.3547 -0.0111786 13.9423 0.128983 13.5387C0.269145 13.1351 0.479387 12.8049 0.759711 12.5481C1.04003 12.2912 1.42548 12.1261 1.91604 12.0527L12.1128 11.1171L16.0549 1.32085C16.2301 0.880566 16.502 0.550354 16.8706 0.330212C17.2378 0.110071 17.6142 0 17.9996 0C18.385 0 18.7621 0.110071 19.1307 0.330212C19.4979 0.550354 19.7691 0.880566 19.9443 1.32085L23.8864 11.1171L34.0832 12.0527C34.5737 12.1261 34.9592 12.2912 35.2395 12.5481C35.5198 12.8049 35.7301 13.1351 35.8702 13.5387C36.0104 13.9423 36.037 14.3547 35.9501 14.7759C35.8618 15.1986 35.6425 15.575 35.2921 15.9052L27.5656 22.8947L29.8783 33.2964C29.9834 33.7734 29.9484 34.2048 29.7732 34.5908C29.598 34.9753 29.3527 35.296 29.0373 35.5528C28.722 35.8097 28.3541 35.9564 27.9336 35.9931C27.5131 36.0298 27.1101 35.9197 26.7247 35.6629L17.9996 30.1594Z" fill="#FBCD3F"/>
</svg>
