<svg width="102" height="111" viewBox="0 0 102 111" fill="none" xmlns="http://www.w3.org/2000/svg">
<path d="M42.7505 49.6981C48.7179 49.6981 54.441 47.2556 58.6607 42.9081C62.8803 38.5606 65.2509 32.6641 65.2509 26.5158C65.2509 20.3675 62.8803 14.4709 58.6607 10.1234C54.441 5.77591 48.7179 3.3335 42.7505 3.3335C36.783 3.3335 31.0599 5.77591 26.8402 10.1234C22.6206 14.4709 20.25 20.3675 20.25 26.5158C20.25 32.6641 22.6206 38.5606 26.8402 42.9081C31.0599 47.2556 36.783 49.6981 42.7505 49.6981Z" stroke="#72421C" stroke-width="6" stroke-linecap="round" stroke-linejoin="round"/>
<path d="M3.375 96.0625V90.2669C3.37363 83.4222 5.05316 76.6884 8.25724 70.6924C11.4613 64.6963 16.0858 59.633 21.7001 55.9738C27.3145 52.3145 33.7361 50.1783 40.3674 49.764C46.9986 49.3497 53.6238 50.6707 59.6261 53.6042M68.8232 75.2854L74.6677 62.5178C74.8258 62.1528 75.0831 61.8428 75.4085 61.6253C75.734 61.4078 76.1136 61.292 76.5015 61.292C76.8894 61.292 77.269 61.4078 77.5944 61.6253C77.9198 61.8428 78.1771 62.1528 78.3353 62.5178L84.1854 75.2854L97.2525 77.3486C98.9288 77.6094 99.5925 79.8349 98.3775 81.1099L88.9273 91.0378L91.1549 105.069C91.4418 106.871 89.6923 108.245 88.1904 107.393L76.5015 100.769L64.8125 107.393C63.3106 108.245 61.5612 106.871 61.848 105.075L64.0756 91.0378L54.6254 81.1099C53.4104 79.8349 54.0741 77.6094 55.7504 77.3428L68.8232 75.2854Z" stroke="#72421C" stroke-width="6" stroke-linecap="round" stroke-linejoin="round"/>
</svg>
