<svg width="72" height="72" viewBox="0 0 72 72" fill="none" xmlns="http://www.w3.org/2000/svg">
<path d="M25.2 51L36 40.2L46.8 51L51 46.8L40.2 36L51 25.2L46.8 21L36 31.8L25.2 21L21 25.2L31.8 36L21 46.8L25.2 51ZM36 66C31.85 66 27.95 65.212 24.3 63.636C20.65 62.062 17.475 59.925 14.775 57.225C12.075 54.525 9.938 51.35 8.364 47.7C6.788 44.05 6 40.15 6 36C6 31.85 6.788 27.95 8.364 24.3C9.938 20.65 12.075 17.475 14.775 14.775C17.475 12.075 20.65 9.937 24.3 8.361C27.95 6.787 31.85 6 36 6C40.15 6 44.05 6.787 47.7 8.361C51.35 9.937 54.525 12.075 57.225 14.775C59.925 17.475 62.062 20.65 63.636 24.3C65.212 27.95 66 31.85 66 36C66 40.15 65.212 44.05 63.636 47.7C62.062 51.35 59.925 54.525 57.225 57.225C54.525 59.925 51.35 62.062 47.7 63.636C44.05 65.212 40.15 66 36 66ZM36 60C42.7 60 48.375 57.675 53.025 53.025C57.675 48.375 60 42.7 60 36C60 29.3 57.675 23.625 53.025 18.975C48.375 14.325 42.7 12 36 12C29.3 12 23.625 14.325 18.975 18.975C14.325 23.625 12 29.3 12 36C12 42.7 14.325 48.375 18.975 53.025C23.625 57.675 29.3 60 36 60Z" fill="#F2994A"/>
</svg>
