<svg width="140" height="25" viewBox="0 0 140 25" fill="none" xmlns="http://www.w3.org/2000/svg">
<path d="M22.85 8.36729L16.0262 7.72571L13.3615 0.928001C12.8821 -0.309334 11.2466 -0.309334 10.7673 0.928001L8.10258 7.74098L1.29281 8.36729C0.0521061 8.47422 -0.455455 10.1546 0.489172 11.0405L5.66347 15.8982L4.11259 23.1084C3.83061 24.4221 5.14181 25.4608 6.21333 24.7582L12.0644 20.9392L17.9154 24.7734C18.9869 25.4761 20.2981 24.4374 20.0162 23.1237L18.4653 15.8982L23.6396 11.0405C24.5842 10.1546 24.0908 8.47422 22.85 8.36729ZM12.0644 18.0827L6.76319 21.5503L8.17308 15.0122L3.49224 10.6128L9.66756 10.0323L12.0644 3.87622L14.4753 10.0476L20.6506 10.6281L15.9698 15.0275L17.3797 21.5655L12.0644 18.0827Z" fill="white"/>
<path d="M51.8168 8.36729L44.993 7.72571L42.3283 0.928001C41.8489 -0.309334 40.2134 -0.309334 39.7341 0.928001L37.0694 7.74098L30.2596 8.36729C29.0189 8.47422 28.5113 10.1546 29.456 11.0405L34.6303 15.8982L33.0794 23.1084C32.7974 24.4221 34.1086 25.4608 35.1801 24.7582L41.0312 20.9392L46.8822 24.7734C47.9537 25.4761 49.2649 24.4374 48.983 23.1237L47.4321 15.8982L52.6064 11.0405C53.551 10.1546 53.0575 8.47422 51.8168 8.36729ZM41.0312 18.0827L35.73 21.5503L37.1399 15.0122L32.459 10.6128L38.6344 10.0323L41.0312 3.87622L43.4421 10.0476L49.6174 10.6281L44.9366 15.0275L46.3465 21.5655L41.0312 18.0827Z" fill="white"/>
<path d="M80.7836 8.36729L73.9598 7.72571L71.2951 0.928001C70.8157 -0.309334 69.1802 -0.309334 68.7009 0.928001L66.0362 7.74098L59.2264 8.36729C57.9857 8.47422 57.4781 10.1546 58.4228 11.0405L63.5971 15.8982L62.0462 23.1084C61.7642 24.4221 63.0754 25.4608 64.1469 24.7582L69.998 20.9392L75.849 24.7734C76.9205 25.4761 78.2317 24.4374 77.9498 23.1237L76.3989 15.8982L81.5732 11.0405C82.5178 10.1546 82.0243 8.47422 80.7836 8.36729ZM69.998 18.0827L64.6968 21.5503L66.1067 15.0122L61.4258 10.6128L67.6012 10.0323L69.998 3.87622L72.4089 10.0476L78.5842 10.6281L73.9034 15.0275L75.3133 21.5655L69.998 18.0827Z" fill="white"/>
<path d="M109.75 8.36729L102.927 7.72571L100.262 0.928001C99.7825 -0.309334 98.147 -0.309334 97.6677 0.928001L95.003 7.74098L88.1932 8.36729C86.9525 8.47422 86.4449 10.1546 87.3896 11.0405L92.5639 15.8982L91.013 23.1084C90.731 24.4221 92.0422 25.4608 93.1137 24.7582L98.9648 20.9392L104.816 24.7734C105.887 25.4761 107.199 24.4374 106.917 23.1237L105.366 15.8982L110.54 11.0405C111.485 10.1546 110.991 8.47422 109.75 8.36729ZM98.9648 18.0827L93.6636 21.5503L95.0735 15.0122L90.3926 10.6128L96.568 10.0323L98.9648 3.87622L101.376 10.0476L107.551 10.6281L102.87 15.0275L104.28 21.5655L98.9648 18.0827Z" fill="white"/>
<path d="M138.717 8.36729L131.893 7.72571L129.229 0.928001C128.749 -0.309334 127.114 -0.309334 126.634 0.928001L123.97 7.74098L117.16 8.36729C115.919 8.47422 115.412 10.1546 116.356 11.0405L121.531 15.8982L119.98 23.1084C119.698 24.4221 121.009 25.4608 122.081 24.7582L127.932 20.9392L133.783 24.7734C134.854 25.4761 136.165 24.4374 135.883 23.1237L134.332 15.8982L139.507 11.0405C140.451 10.1546 139.958 8.47422 138.717 8.36729ZM127.932 18.0827L122.63 21.5503L124.04 15.0122L119.359 10.6128L125.535 10.0323L127.932 3.87622L130.342 10.0476L136.518 10.6281L131.837 15.0275L133.247 21.5655L127.932 18.0827Z" fill="white"/>
</svg>
