<svg width="22" height="23" viewBox="0 0 22 23" fill="none" xmlns="http://www.w3.org/2000/svg">
<path d="M20.7282 7.59032L14.538 7.00832L12.1208 0.84183C11.6859 -0.28061 10.2023 -0.28061 9.76746 0.84183L7.3502 7.02217L1.17276 7.59032C0.0472676 7.68732 -0.413163 9.21162 0.443749 10.0153L5.13758 14.422L3.73071 20.9626C3.47491 22.1543 4.66436 23.0966 5.63638 22.4592L10.9441 18.9949L16.2518 22.473C17.2239 23.1105 18.4133 22.1682 18.1575 20.9765L16.7506 14.422L21.4445 10.0153C22.3014 9.21162 21.8537 7.68732 20.7282 7.59032ZM10.9441 16.4036L6.13518 19.5492L7.41415 13.6182L3.16796 9.62734L8.76986 9.10077L10.9441 3.51628L13.1312 9.11462L18.7331 9.6412L14.4869 13.6321L15.7658 19.563L10.9441 16.4036Z" fill="#2A2A2A"/>
</svg>
